<mxfile host="app.diagrams.net" agent="Mozilla/5.0 (Macintosh; Intel Mac OS X 10_15_7) AppleWebKit/537.36 (KHTML, like Gecko) Chrome/132.0.0.0 Safari/537.36" version="26.1.1">
  <diagram name="第 1 页" id="Ms3w1I7j1L3ukOxXHqwr">
    <mxGraphModel dx="1865" dy="1244" grid="1" gridSize="10" guides="1" tooltips="1" connect="1" arrows="1" fold="1" page="1" pageScale="1" pageWidth="1654" pageHeight="2336" math="0" shadow="0">
      <root>
        <mxCell id="0" />
        <mxCell id="1" parent="0" />
        <mxCell id="InxY2Z15q-nkg9lSu2-P-2" value="" style="shape=umlLifeline;perimeter=lifelinePerimeter;whiteSpace=wrap;html=1;container=1;dropTarget=0;collapsible=0;recursiveResize=0;outlineConnect=0;portConstraint=eastwest;newEdgeStyle={&quot;curved&quot;:0,&quot;rounded&quot;:0};participant=umlActor;" vertex="1" parent="1">
          <mxGeometry y="60" width="50" height="480" as="geometry" />
        </mxCell>
        <mxCell id="InxY2Z15q-nkg9lSu2-P-3" value="GameController" style="shape=umlLifeline;perimeter=lifelinePerimeter;whiteSpace=wrap;html=1;container=1;dropTarget=0;collapsible=0;recursiveResize=0;outlineConnect=0;portConstraint=eastwest;newEdgeStyle={&quot;curved&quot;:0,&quot;rounded&quot;:0};" vertex="1" parent="1">
          <mxGeometry x="210" y="60" width="100" height="470" as="geometry" />
        </mxCell>
        <mxCell id="InxY2Z15q-nkg9lSu2-P-19" value="" style="html=1;points=[[0,0,0,0,5],[0,1,0,0,-5],[1,0,0,0,5],[1,1,0,0,-5]];perimeter=orthogonalPerimeter;outlineConnect=0;targetShapes=umlLifeline;portConstraint=eastwest;newEdgeStyle={&quot;curved&quot;:0,&quot;rounded&quot;:0};" vertex="1" parent="InxY2Z15q-nkg9lSu2-P-3">
          <mxGeometry x="47" y="130" width="10" height="300" as="geometry" />
        </mxCell>
        <mxCell id="InxY2Z15q-nkg9lSu2-P-4" value="GameWorld" style="shape=umlLifeline;perimeter=lifelinePerimeter;whiteSpace=wrap;html=1;container=1;dropTarget=0;collapsible=0;recursiveResize=0;outlineConnect=0;portConstraint=eastwest;newEdgeStyle={&quot;curved&quot;:0,&quot;rounded&quot;:0};" vertex="1" parent="1">
          <mxGeometry x="330" y="60" width="100" height="470" as="geometry" />
        </mxCell>
        <mxCell id="InxY2Z15q-nkg9lSu2-P-16" value="" style="html=1;points=[[0,0,0,0,5],[0,1,0,0,-5],[1,0,0,0,5],[1,1,0,0,-5]];perimeter=orthogonalPerimeter;outlineConnect=0;targetShapes=umlLifeline;portConstraint=eastwest;newEdgeStyle={&quot;curved&quot;:0,&quot;rounded&quot;:0};" vertex="1" parent="InxY2Z15q-nkg9lSu2-P-4">
          <mxGeometry x="45" y="80" width="10" height="350" as="geometry" />
        </mxCell>
        <mxCell id="InxY2Z15q-nkg9lSu2-P-5" value="Room:&lt;div&gt;Dungeon Entrance&lt;/div&gt;" style="shape=umlLifeline;perimeter=lifelinePerimeter;whiteSpace=wrap;html=1;container=1;dropTarget=0;collapsible=0;recursiveResize=0;outlineConnect=0;portConstraint=eastwest;newEdgeStyle={&quot;curved&quot;:0,&quot;rounded&quot;:0};" vertex="1" parent="1">
          <mxGeometry x="580" y="60" width="100" height="470" as="geometry" />
        </mxCell>
        <mxCell id="InxY2Z15q-nkg9lSu2-P-24" value="" style="html=1;points=[[0,0,0,0,5],[0,1,0,0,-5],[1,0,0,0,5],[1,1,0,0,-5]];perimeter=orthogonalPerimeter;outlineConnect=0;targetShapes=umlLifeline;portConstraint=eastwest;newEdgeStyle={&quot;curved&quot;:0,&quot;rounded&quot;:0};" vertex="1" parent="InxY2Z15q-nkg9lSu2-P-5">
          <mxGeometry x="45" y="90" width="10" height="340" as="geometry" />
        </mxCell>
        <mxCell id="InxY2Z15q-nkg9lSu2-P-6" value="User" style="text;html=1;align=center;verticalAlign=middle;resizable=0;points=[];autosize=1;strokeColor=none;fillColor=none;" vertex="1" parent="1">
          <mxGeometry y="20" width="50" height="30" as="geometry" />
        </mxCell>
        <mxCell id="InxY2Z15q-nkg9lSu2-P-10" value="GameEngineApp" style="shape=umlLifeline;perimeter=lifelinePerimeter;whiteSpace=wrap;html=1;container=1;dropTarget=0;collapsible=0;recursiveResize=0;outlineConnect=0;portConstraint=eastwest;newEdgeStyle={&quot;curved&quot;:0,&quot;rounded&quot;:0};" vertex="1" parent="1">
          <mxGeometry x="80" y="60" width="100" height="470" as="geometry" />
        </mxCell>
        <mxCell id="InxY2Z15q-nkg9lSu2-P-13" value="" style="html=1;points=[[0,0,0,0,5],[0,1,0,0,-5],[1,0,0,0,5],[1,1,0,0,-5]];perimeter=orthogonalPerimeter;outlineConnect=0;targetShapes=umlLifeline;portConstraint=eastwest;newEdgeStyle={&quot;curved&quot;:0,&quot;rounded&quot;:0};" vertex="1" parent="InxY2Z15q-nkg9lSu2-P-10">
          <mxGeometry x="44" y="60" width="10" height="370" as="geometry" />
        </mxCell>
        <mxCell id="InxY2Z15q-nkg9lSu2-P-14" value="initialize()" style="html=1;verticalAlign=bottom;startArrow=oval;endArrow=block;startSize=8;curved=0;rounded=0;entryX=0;entryY=0;entryDx=0;entryDy=5;" edge="1" target="InxY2Z15q-nkg9lSu2-P-13" parent="1" source="InxY2Z15q-nkg9lSu2-P-2">
          <mxGeometry relative="1" as="geometry">
            <mxPoint x="84" y="125" as="sourcePoint" />
          </mxGeometry>
        </mxCell>
        <mxCell id="InxY2Z15q-nkg9lSu2-P-17" value="parseGameFile()&amp;nbsp;" style="html=1;verticalAlign=bottom;startArrow=oval;endArrow=block;startSize=8;curved=0;rounded=0;entryX=0;entryY=0;entryDx=0;entryDy=5;" edge="1" target="InxY2Z15q-nkg9lSu2-P-16" parent="1" source="InxY2Z15q-nkg9lSu2-P-10">
          <mxGeometry relative="1" as="geometry">
            <mxPoint x="204" y="145" as="sourcePoint" />
          </mxGeometry>
        </mxCell>
        <mxCell id="InxY2Z15q-nkg9lSu2-P-18" value="return new GameWorld" style="html=1;verticalAlign=bottom;endArrow=open;dashed=1;endSize=8;curved=0;rounded=0;" edge="1" parent="1" source="InxY2Z15q-nkg9lSu2-P-16">
          <mxGeometry relative="1" as="geometry">
            <mxPoint x="210" y="170" as="sourcePoint" />
            <mxPoint x="130" y="170" as="targetPoint" />
          </mxGeometry>
        </mxCell>
        <mxCell id="InxY2Z15q-nkg9lSu2-P-20" value="initialize()" style="html=1;verticalAlign=bottom;startArrow=oval;endArrow=block;startSize=8;curved=0;rounded=0;entryX=0;entryY=0;entryDx=0;entryDy=5;" edge="1" target="InxY2Z15q-nkg9lSu2-P-19" parent="1" source="InxY2Z15q-nkg9lSu2-P-10">
          <mxGeometry relative="1" as="geometry">
            <mxPoint x="132" y="195" as="sourcePoint" />
          </mxGeometry>
        </mxCell>
        <mxCell id="InxY2Z15q-nkg9lSu2-P-21" value="Player" style="shape=umlLifeline;perimeter=lifelinePerimeter;whiteSpace=wrap;html=1;container=1;dropTarget=0;collapsible=0;recursiveResize=0;outlineConnect=0;portConstraint=eastwest;newEdgeStyle={&quot;curved&quot;:0,&quot;rounded&quot;:0};" vertex="1" parent="1">
          <mxGeometry x="450" y="60" width="100" height="470" as="geometry" />
        </mxCell>
        <mxCell id="InxY2Z15q-nkg9lSu2-P-22" value="" style="html=1;points=[[0,0,0,0,5],[0,1,0,0,-5],[1,0,0,0,5],[1,1,0,0,-5]];perimeter=orthogonalPerimeter;outlineConnect=0;targetShapes=umlLifeline;portConstraint=eastwest;newEdgeStyle={&quot;curved&quot;:0,&quot;rounded&quot;:0};" vertex="1" parent="InxY2Z15q-nkg9lSu2-P-21">
          <mxGeometry x="45" y="150" width="10" height="280" as="geometry" />
        </mxCell>
        <mxCell id="InxY2Z15q-nkg9lSu2-P-23" value="initialize()" style="html=1;verticalAlign=bottom;startArrow=oval;endArrow=block;startSize=8;curved=0;rounded=0;entryX=0;entryY=0;entryDx=0;entryDy=5;" edge="1" parent="1" target="InxY2Z15q-nkg9lSu2-P-22" source="InxY2Z15q-nkg9lSu2-P-10">
          <mxGeometry relative="1" as="geometry">
            <mxPoint x="130" y="215" as="sourcePoint" />
          </mxGeometry>
        </mxCell>
        <mxCell id="InxY2Z15q-nkg9lSu2-P-25" value="initialize()" style="html=1;verticalAlign=bottom;startArrow=oval;endArrow=block;startSize=8;curved=0;rounded=0;entryX=0;entryY=0;entryDx=0;entryDy=5;" edge="1" target="InxY2Z15q-nkg9lSu2-P-24" parent="1">
          <mxGeometry relative="1" as="geometry">
            <mxPoint x="380" y="155" as="sourcePoint" />
          </mxGeometry>
        </mxCell>
        <mxCell id="InxY2Z15q-nkg9lSu2-P-26" value="Room:&lt;div&gt;Guild&lt;/div&gt;" style="shape=umlLifeline;perimeter=lifelinePerimeter;whiteSpace=wrap;html=1;container=1;dropTarget=0;collapsible=0;recursiveResize=0;outlineConnect=0;portConstraint=eastwest;newEdgeStyle={&quot;curved&quot;:0,&quot;rounded&quot;:0};" vertex="1" parent="1">
          <mxGeometry x="800" y="60" width="100" height="470" as="geometry" />
        </mxCell>
        <mxCell id="InxY2Z15q-nkg9lSu2-P-28" value="" style="html=1;points=[[0,0,0,0,5],[0,1,0,0,-5],[1,0,0,0,5],[1,1,0,0,-5]];perimeter=orthogonalPerimeter;outlineConnect=0;targetShapes=umlLifeline;portConstraint=eastwest;newEdgeStyle={&quot;curved&quot;:0,&quot;rounded&quot;:0};" vertex="1" parent="InxY2Z15q-nkg9lSu2-P-26">
          <mxGeometry x="45" y="120" width="10" height="310" as="geometry" />
        </mxCell>
        <mxCell id="InxY2Z15q-nkg9lSu2-P-29" value="initialize()" style="html=1;verticalAlign=bottom;startArrow=oval;endArrow=block;startSize=8;curved=0;rounded=0;entryX=0;entryY=0;entryDx=0;entryDy=5;" edge="1" parent="1" target="InxY2Z15q-nkg9lSu2-P-28" source="InxY2Z15q-nkg9lSu2-P-4">
          <mxGeometry relative="1" as="geometry">
            <mxPoint x="380" y="185" as="sourcePoint" />
          </mxGeometry>
        </mxCell>
        <mxCell id="InxY2Z15q-nkg9lSu2-P-30" value="Room:&lt;div&gt;FirstLayer&lt;/div&gt;" style="shape=umlLifeline;perimeter=lifelinePerimeter;whiteSpace=wrap;html=1;container=1;dropTarget=0;collapsible=0;recursiveResize=0;outlineConnect=0;portConstraint=eastwest;newEdgeStyle={&quot;curved&quot;:0,&quot;rounded&quot;:0};" vertex="1" parent="1">
          <mxGeometry x="920" y="60" width="100" height="470" as="geometry" />
        </mxCell>
        <mxCell id="InxY2Z15q-nkg9lSu2-P-32" value="" style="html=1;points=[[0,0,0,0,5],[0,1,0,0,-5],[1,0,0,0,5],[1,1,0,0,-5]];perimeter=orthogonalPerimeter;outlineConnect=0;targetShapes=umlLifeline;portConstraint=eastwest;newEdgeStyle={&quot;curved&quot;:0,&quot;rounded&quot;:0};" vertex="1" parent="InxY2Z15q-nkg9lSu2-P-30">
          <mxGeometry x="45" y="140" width="10" height="290" as="geometry" />
        </mxCell>
        <mxCell id="InxY2Z15q-nkg9lSu2-P-33" value="initialize()" style="html=1;verticalAlign=bottom;startArrow=oval;endArrow=block;startSize=8;curved=0;rounded=0;entryX=0;entryY=0;entryDx=0;entryDy=5;" edge="1" parent="1" target="InxY2Z15q-nkg9lSu2-P-32" source="InxY2Z15q-nkg9lSu2-P-4">
          <mxGeometry relative="1" as="geometry">
            <mxPoint x="390" y="205" as="sourcePoint" />
          </mxGeometry>
        </mxCell>
        <mxCell id="InxY2Z15q-nkg9lSu2-P-34" value="Fixture:&lt;br&gt;BillBoard" style="shape=umlLifeline;perimeter=lifelinePerimeter;whiteSpace=wrap;html=1;container=1;dropTarget=0;collapsible=0;recursiveResize=0;outlineConnect=0;portConstraint=eastwest;newEdgeStyle={&quot;curved&quot;:0,&quot;rounded&quot;:0};" vertex="1" parent="1">
          <mxGeometry x="690" y="60" width="100" height="470" as="geometry" />
        </mxCell>
        <mxCell id="InxY2Z15q-nkg9lSu2-P-36" value="" style="html=1;points=[[0,0,0,0,5],[0,1,0,0,-5],[1,0,0,0,5],[1,1,0,0,-5]];perimeter=orthogonalPerimeter;outlineConnect=0;targetShapes=umlLifeline;portConstraint=eastwest;newEdgeStyle={&quot;curved&quot;:0,&quot;rounded&quot;:0};" vertex="1" parent="InxY2Z15q-nkg9lSu2-P-34">
          <mxGeometry x="45" y="110" width="10" height="320" as="geometry" />
        </mxCell>
        <mxCell id="InxY2Z15q-nkg9lSu2-P-37" value="initialize()" style="html=1;verticalAlign=bottom;startArrow=oval;endArrow=block;startSize=8;curved=0;rounded=0;entryX=0;entryY=0;entryDx=0;entryDy=5;" edge="1" target="InxY2Z15q-nkg9lSu2-P-36" parent="1">
          <mxGeometry x="0.0028" relative="1" as="geometry">
            <mxPoint x="380" y="175" as="sourcePoint" />
            <mxPoint as="offset" />
          </mxGeometry>
        </mxCell>
        <mxCell id="InxY2Z15q-nkg9lSu2-P-38" value="Input Command &quot;X billboard&quot;" style="html=1;verticalAlign=bottom;startArrow=oval;startFill=1;endArrow=block;startSize=8;curved=0;rounded=0;" edge="1" parent="1" source="InxY2Z15q-nkg9lSu2-P-2">
          <mxGeometry x="0.0127" width="60" relative="1" as="geometry">
            <mxPoint x="30" y="250" as="sourcePoint" />
            <mxPoint x="129.5" y="250" as="targetPoint" />
            <mxPoint as="offset" />
          </mxGeometry>
        </mxCell>
        <mxCell id="InxY2Z15q-nkg9lSu2-P-39" value="&lt;font style=&quot;font-size: 12px;&quot;&gt;processCommand(&quot;X billboard&quot;)&lt;/font&gt;" style="html=1;verticalAlign=bottom;startArrow=oval;startFill=1;endArrow=block;startSize=8;curved=0;rounded=0;" edge="1" parent="1">
          <mxGeometry x="-0.0121" width="60" relative="1" as="geometry">
            <mxPoint x="129.5" y="270" as="sourcePoint" />
            <mxPoint x="259.5" y="270" as="targetPoint" />
            <mxPoint as="offset" />
          </mxGeometry>
        </mxCell>
        <mxCell id="InxY2Z15q-nkg9lSu2-P-41" value="examine(&quot;billboard&quot;)" style="html=1;verticalAlign=bottom;startArrow=oval;startFill=1;endArrow=block;startSize=8;curved=0;rounded=0;" edge="1" parent="1" target="InxY2Z15q-nkg9lSu2-P-34">
          <mxGeometry width="60" relative="1" as="geometry">
            <mxPoint x="260" y="290" as="sourcePoint" />
            <mxPoint x="320" y="290" as="targetPoint" />
          </mxGeometry>
        </mxCell>
        <mxCell id="InxY2Z15q-nkg9lSu2-P-42" value="print description" style="html=1;verticalAlign=bottom;endArrow=open;dashed=1;endSize=8;curved=0;rounded=0;" edge="1" parent="1" target="InxY2Z15q-nkg9lSu2-P-2">
          <mxGeometry relative="1" as="geometry">
            <mxPoint x="740" y="310" as="sourcePoint" />
            <mxPoint x="660" y="310" as="targetPoint" />
          </mxGeometry>
        </mxCell>
        <mxCell id="InxY2Z15q-nkg9lSu2-P-43" value="Puzzle:&lt;br&gt;Nobleman&#39;s Commission" style="shape=umlLifeline;perimeter=lifelinePerimeter;whiteSpace=wrap;html=1;container=1;dropTarget=0;collapsible=0;recursiveResize=0;outlineConnect=0;portConstraint=eastwest;newEdgeStyle={&quot;curved&quot;:0,&quot;rounded&quot;:0};" vertex="1" parent="1">
          <mxGeometry x="1030" y="60" width="100" height="470" as="geometry" />
        </mxCell>
        <mxCell id="InxY2Z15q-nkg9lSu2-P-44" value="" style="html=1;points=[[0,0,0,0,5],[0,1,0,0,-5],[1,0,0,0,5],[1,1,0,0,-5]];perimeter=orthogonalPerimeter;outlineConnect=0;targetShapes=umlLifeline;portConstraint=eastwest;newEdgeStyle={&quot;curved&quot;:0,&quot;rounded&quot;:0};" vertex="1" parent="InxY2Z15q-nkg9lSu2-P-43">
          <mxGeometry x="45" y="130" width="10" height="300" as="geometry" />
        </mxCell>
        <mxCell id="InxY2Z15q-nkg9lSu2-P-45" value="initalize()" style="html=1;verticalAlign=bottom;startArrow=oval;endArrow=block;startSize=8;curved=0;rounded=0;entryX=0;entryY=0;entryDx=0;entryDy=5;" edge="1" target="InxY2Z15q-nkg9lSu2-P-44" parent="1">
          <mxGeometry relative="1" as="geometry">
            <mxPoint x="850" y="195" as="sourcePoint" />
          </mxGeometry>
        </mxCell>
        <mxCell id="InxY2Z15q-nkg9lSu2-P-46" value="Input Command &quot;E&quot;" style="html=1;verticalAlign=bottom;startArrow=oval;startFill=1;endArrow=block;startSize=8;curved=0;rounded=0;" edge="1" parent="1" source="InxY2Z15q-nkg9lSu2-P-2">
          <mxGeometry x="0.0095" width="60" relative="1" as="geometry">
            <mxPoint x="26" y="350" as="sourcePoint" />
            <mxPoint x="130.5" y="350" as="targetPoint" />
            <mxPoint as="offset" />
          </mxGeometry>
        </mxCell>
        <mxCell id="InxY2Z15q-nkg9lSu2-P-49" value="&lt;font style=&quot;font-size: 12px;&quot;&gt;processCommand(&quot;E&quot;)&lt;/font&gt;" style="html=1;verticalAlign=bottom;startArrow=oval;startFill=1;endArrow=block;startSize=8;curved=0;rounded=0;" edge="1" parent="1">
          <mxGeometry width="60" relative="1" as="geometry">
            <mxPoint x="130" y="360" as="sourcePoint" />
            <mxPoint x="260" y="360" as="targetPoint" />
            <mxPoint as="offset" />
          </mxGeometry>
        </mxCell>
        <mxCell id="InxY2Z15q-nkg9lSu2-P-53" value="isSolved()" style="html=1;verticalAlign=bottom;startArrow=oval;startFill=1;endArrow=block;startSize=8;curved=0;rounded=0;" edge="1" parent="1">
          <mxGeometry width="60" relative="1" as="geometry">
            <mxPoint x="850" y="380" as="sourcePoint" />
            <mxPoint x="1079.5" y="380" as="targetPoint" />
            <Array as="points">
              <mxPoint x="890" y="380" />
              <mxPoint x="910" y="380" />
            </Array>
          </mxGeometry>
        </mxCell>
        <mxCell id="InxY2Z15q-nkg9lSu2-P-54" value="return false" style="html=1;verticalAlign=bottom;endArrow=open;dashed=1;endSize=8;curved=0;rounded=0;" edge="1" parent="1">
          <mxGeometry relative="1" as="geometry">
            <mxPoint x="1079.5" y="400" as="sourcePoint" />
            <mxPoint x="849.3235294117649" y="400" as="targetPoint" />
          </mxGeometry>
        </mxCell>
        <mxCell id="InxY2Z15q-nkg9lSu2-P-56" value="move(&quot;east&quot;)" style="html=1;align=left;spacingLeft=2;endArrow=block;rounded=0;edgeStyle=orthogonalEdgeStyle;curved=0;rounded=0;" edge="1" parent="1">
          <mxGeometry x="0.0013" relative="1" as="geometry">
            <mxPoint x="267" y="360" as="sourcePoint" />
            <Array as="points">
              <mxPoint x="277" y="360" />
              <mxPoint x="277" y="420" />
            </Array>
            <mxPoint x="267" y="420" as="targetPoint" />
            <mxPoint as="offset" />
          </mxGeometry>
        </mxCell>
        <mxCell id="InxY2Z15q-nkg9lSu2-P-58" value="checkRoomStatus()" style="html=1;verticalAlign=bottom;endArrow=block;curved=0;rounded=0;" edge="1" parent="1">
          <mxGeometry width="80" relative="1" as="geometry">
            <mxPoint x="280" y="380" as="sourcePoint" />
            <mxPoint x="845" y="380" as="targetPoint" />
          </mxGeometry>
        </mxCell>
        <mxCell id="InxY2Z15q-nkg9lSu2-P-59" value="return false" style="html=1;verticalAlign=bottom;endArrow=open;dashed=1;endSize=8;curved=0;rounded=0;" edge="1" parent="1" source="InxY2Z15q-nkg9lSu2-P-26">
          <mxGeometry relative="1" as="geometry">
            <mxPoint x="360" y="410" as="sourcePoint" />
            <mxPoint x="280" y="410" as="targetPoint" />
          </mxGeometry>
        </mxCell>
        <mxCell id="InxY2Z15q-nkg9lSu2-P-143" value="" style="shape=umlLifeline;perimeter=lifelinePerimeter;whiteSpace=wrap;html=1;container=1;dropTarget=0;collapsible=0;recursiveResize=0;outlineConnect=0;portConstraint=eastwest;newEdgeStyle={&quot;curved&quot;:0,&quot;rounded&quot;:0};participant=umlActor;" vertex="1" parent="1">
          <mxGeometry y="650" width="50" height="690" as="geometry" />
        </mxCell>
        <mxCell id="InxY2Z15q-nkg9lSu2-P-144" value="GameController" style="shape=umlLifeline;perimeter=lifelinePerimeter;whiteSpace=wrap;html=1;container=1;dropTarget=0;collapsible=0;recursiveResize=0;outlineConnect=0;portConstraint=eastwest;newEdgeStyle={&quot;curved&quot;:0,&quot;rounded&quot;:0};" vertex="1" parent="1">
          <mxGeometry x="210" y="650" width="100" height="680" as="geometry" />
        </mxCell>
        <mxCell id="InxY2Z15q-nkg9lSu2-P-145" value="" style="html=1;points=[[0,0,0,0,5],[0,1,0,0,-5],[1,0,0,0,5],[1,1,0,0,-5]];perimeter=orthogonalPerimeter;outlineConnect=0;targetShapes=umlLifeline;portConstraint=eastwest;newEdgeStyle={&quot;curved&quot;:0,&quot;rounded&quot;:0};" vertex="1" parent="InxY2Z15q-nkg9lSu2-P-144">
          <mxGeometry x="47" y="60" width="10" height="620" as="geometry" />
        </mxCell>
        <mxCell id="InxY2Z15q-nkg9lSu2-P-146" value="GameWorld" style="shape=umlLifeline;perimeter=lifelinePerimeter;whiteSpace=wrap;html=1;container=1;dropTarget=0;collapsible=0;recursiveResize=0;outlineConnect=0;portConstraint=eastwest;newEdgeStyle={&quot;curved&quot;:0,&quot;rounded&quot;:0};" vertex="1" parent="1">
          <mxGeometry x="330" y="650" width="100" height="680" as="geometry" />
        </mxCell>
        <mxCell id="InxY2Z15q-nkg9lSu2-P-147" value="" style="html=1;points=[[0,0,0,0,5],[0,1,0,0,-5],[1,0,0,0,5],[1,1,0,0,-5]];perimeter=orthogonalPerimeter;outlineConnect=0;targetShapes=umlLifeline;portConstraint=eastwest;newEdgeStyle={&quot;curved&quot;:0,&quot;rounded&quot;:0};" vertex="1" parent="InxY2Z15q-nkg9lSu2-P-146">
          <mxGeometry x="45" y="60" width="10" height="620" as="geometry" />
        </mxCell>
        <mxCell id="InxY2Z15q-nkg9lSu2-P-148" value="Room:&lt;div&gt;Dungeon Entrance&lt;/div&gt;" style="shape=umlLifeline;perimeter=lifelinePerimeter;whiteSpace=wrap;html=1;container=1;dropTarget=0;collapsible=0;recursiveResize=0;outlineConnect=0;portConstraint=eastwest;newEdgeStyle={&quot;curved&quot;:0,&quot;rounded&quot;:0};" vertex="1" parent="1">
          <mxGeometry x="580" y="650" width="100" height="680" as="geometry" />
        </mxCell>
        <mxCell id="InxY2Z15q-nkg9lSu2-P-149" value="" style="html=1;points=[[0,0,0,0,5],[0,1,0,0,-5],[1,0,0,0,5],[1,1,0,0,-5]];perimeter=orthogonalPerimeter;outlineConnect=0;targetShapes=umlLifeline;portConstraint=eastwest;newEdgeStyle={&quot;curved&quot;:0,&quot;rounded&quot;:0};" vertex="1" parent="InxY2Z15q-nkg9lSu2-P-148">
          <mxGeometry x="45" y="60" width="10" height="620" as="geometry" />
        </mxCell>
        <mxCell id="InxY2Z15q-nkg9lSu2-P-150" value="User" style="text;html=1;align=center;verticalAlign=middle;resizable=0;points=[];autosize=1;strokeColor=none;fillColor=none;" vertex="1" parent="1">
          <mxGeometry y="610" width="50" height="30" as="geometry" />
        </mxCell>
        <mxCell id="InxY2Z15q-nkg9lSu2-P-151" value="GameEngineApp" style="shape=umlLifeline;perimeter=lifelinePerimeter;whiteSpace=wrap;html=1;container=1;dropTarget=0;collapsible=0;recursiveResize=0;outlineConnect=0;portConstraint=eastwest;newEdgeStyle={&quot;curved&quot;:0,&quot;rounded&quot;:0};" vertex="1" parent="1">
          <mxGeometry x="80" y="650" width="100" height="680" as="geometry" />
        </mxCell>
        <mxCell id="InxY2Z15q-nkg9lSu2-P-152" value="" style="html=1;points=[[0,0,0,0,5],[0,1,0,0,-5],[1,0,0,0,5],[1,1,0,0,-5]];perimeter=orthogonalPerimeter;outlineConnect=0;targetShapes=umlLifeline;portConstraint=eastwest;newEdgeStyle={&quot;curved&quot;:0,&quot;rounded&quot;:0};" vertex="1" parent="InxY2Z15q-nkg9lSu2-P-151">
          <mxGeometry x="44" y="60" width="10" height="620" as="geometry" />
        </mxCell>
        <mxCell id="InxY2Z15q-nkg9lSu2-P-157" value="Player" style="shape=umlLifeline;perimeter=lifelinePerimeter;whiteSpace=wrap;html=1;container=1;dropTarget=0;collapsible=0;recursiveResize=0;outlineConnect=0;portConstraint=eastwest;newEdgeStyle={&quot;curved&quot;:0,&quot;rounded&quot;:0};" vertex="1" parent="1">
          <mxGeometry x="450" y="650" width="100" height="680" as="geometry" />
        </mxCell>
        <mxCell id="InxY2Z15q-nkg9lSu2-P-158" value="" style="html=1;points=[[0,0,0,0,5],[0,1,0,0,-5],[1,0,0,0,5],[1,1,0,0,-5]];perimeter=orthogonalPerimeter;outlineConnect=0;targetShapes=umlLifeline;portConstraint=eastwest;newEdgeStyle={&quot;curved&quot;:0,&quot;rounded&quot;:0};" vertex="1" parent="InxY2Z15q-nkg9lSu2-P-157">
          <mxGeometry x="45" y="60" width="10" height="620" as="geometry" />
        </mxCell>
        <mxCell id="InxY2Z15q-nkg9lSu2-P-161" value="Room:&lt;div&gt;Guild&lt;/div&gt;" style="shape=umlLifeline;perimeter=lifelinePerimeter;whiteSpace=wrap;html=1;container=1;dropTarget=0;collapsible=0;recursiveResize=0;outlineConnect=0;portConstraint=eastwest;newEdgeStyle={&quot;curved&quot;:0,&quot;rounded&quot;:0};" vertex="1" parent="1">
          <mxGeometry x="800" y="650" width="100" height="680" as="geometry" />
        </mxCell>
        <mxCell id="InxY2Z15q-nkg9lSu2-P-162" value="" style="html=1;points=[[0,0,0,0,5],[0,1,0,0,-5],[1,0,0,0,5],[1,1,0,0,-5]];perimeter=orthogonalPerimeter;outlineConnect=0;targetShapes=umlLifeline;portConstraint=eastwest;newEdgeStyle={&quot;curved&quot;:0,&quot;rounded&quot;:0};" vertex="1" parent="InxY2Z15q-nkg9lSu2-P-161">
          <mxGeometry x="45" y="60" width="10" height="620" as="geometry" />
        </mxCell>
        <mxCell id="InxY2Z15q-nkg9lSu2-P-164" value="Room:&lt;div&gt;FirstLayer&lt;/div&gt;" style="shape=umlLifeline;perimeter=lifelinePerimeter;whiteSpace=wrap;html=1;container=1;dropTarget=0;collapsible=0;recursiveResize=0;outlineConnect=0;portConstraint=eastwest;newEdgeStyle={&quot;curved&quot;:0,&quot;rounded&quot;:0};" vertex="1" parent="1">
          <mxGeometry x="920" y="650" width="100" height="680" as="geometry" />
        </mxCell>
        <mxCell id="InxY2Z15q-nkg9lSu2-P-165" value="" style="html=1;points=[[0,0,0,0,5],[0,1,0,0,-5],[1,0,0,0,5],[1,1,0,0,-5]];perimeter=orthogonalPerimeter;outlineConnect=0;targetShapes=umlLifeline;portConstraint=eastwest;newEdgeStyle={&quot;curved&quot;:0,&quot;rounded&quot;:0};" vertex="1" parent="InxY2Z15q-nkg9lSu2-P-164">
          <mxGeometry x="45" y="60" width="10" height="620" as="geometry" />
        </mxCell>
        <mxCell id="InxY2Z15q-nkg9lSu2-P-167" value="Fixture:&lt;br&gt;BillBoard" style="shape=umlLifeline;perimeter=lifelinePerimeter;whiteSpace=wrap;html=1;container=1;dropTarget=0;collapsible=0;recursiveResize=0;outlineConnect=0;portConstraint=eastwest;newEdgeStyle={&quot;curved&quot;:0,&quot;rounded&quot;:0};" vertex="1" parent="1">
          <mxGeometry x="690" y="650" width="100" height="680" as="geometry" />
        </mxCell>
        <mxCell id="InxY2Z15q-nkg9lSu2-P-168" value="" style="html=1;points=[[0,0,0,0,5],[0,1,0,0,-5],[1,0,0,0,5],[1,1,0,0,-5]];perimeter=orthogonalPerimeter;outlineConnect=0;targetShapes=umlLifeline;portConstraint=eastwest;newEdgeStyle={&quot;curved&quot;:0,&quot;rounded&quot;:0};" vertex="1" parent="InxY2Z15q-nkg9lSu2-P-167">
          <mxGeometry x="45" y="60" width="10" height="620" as="geometry" />
        </mxCell>
        <mxCell id="InxY2Z15q-nkg9lSu2-P-170" value="Input Command &quot;N&quot;" style="html=1;verticalAlign=bottom;startArrow=oval;startFill=1;endArrow=block;startSize=8;curved=0;rounded=0;" edge="1" parent="1">
          <mxGeometry x="0.006" width="60" relative="1" as="geometry">
            <mxPoint x="26.000000000000227" y="720" as="sourcePoint" />
            <mxPoint x="131.25" y="720" as="targetPoint" />
            <mxPoint as="offset" />
          </mxGeometry>
        </mxCell>
        <mxCell id="InxY2Z15q-nkg9lSu2-P-171" value="&lt;font style=&quot;font-size: 12px;&quot;&gt;processCommand(&quot;N&quot;)&lt;/font&gt;" style="html=1;verticalAlign=bottom;startArrow=oval;startFill=1;endArrow=block;startSize=8;curved=0;rounded=0;" edge="1" parent="1">
          <mxGeometry x="-0.0045" width="60" relative="1" as="geometry">
            <mxPoint x="129.5" y="750" as="sourcePoint" />
            <mxPoint x="259.5" y="750" as="targetPoint" />
            <mxPoint as="offset" />
          </mxGeometry>
        </mxCell>
        <mxCell id="InxY2Z15q-nkg9lSu2-P-174" value="Puzzle:&lt;br&gt;Nobleman&#39;s Commission" style="shape=umlLifeline;perimeter=lifelinePerimeter;whiteSpace=wrap;html=1;container=1;dropTarget=0;collapsible=0;recursiveResize=0;outlineConnect=0;portConstraint=eastwest;newEdgeStyle={&quot;curved&quot;:0,&quot;rounded&quot;:0};" vertex="1" parent="1">
          <mxGeometry x="1030" y="650" width="100" height="680" as="geometry" />
        </mxCell>
        <mxCell id="InxY2Z15q-nkg9lSu2-P-175" value="" style="html=1;points=[[0,0,0,0,5],[0,1,0,0,-5],[1,0,0,0,5],[1,1,0,0,-5]];perimeter=orthogonalPerimeter;outlineConnect=0;targetShapes=umlLifeline;portConstraint=eastwest;newEdgeStyle={&quot;curved&quot;:0,&quot;rounded&quot;:0};" vertex="1" parent="InxY2Z15q-nkg9lSu2-P-174">
          <mxGeometry x="45" y="60" width="10" height="620" as="geometry" />
        </mxCell>
        <mxCell id="InxY2Z15q-nkg9lSu2-P-181" value="move(&quot;north&quot;)" style="html=1;align=left;spacingLeft=2;endArrow=block;rounded=0;edgeStyle=orthogonalEdgeStyle;curved=0;rounded=0;" edge="1" parent="1">
          <mxGeometry relative="1" as="geometry">
            <mxPoint x="267" y="760" as="sourcePoint" />
            <Array as="points">
              <mxPoint x="277" y="760" />
              <mxPoint x="277" y="820" />
            </Array>
            <mxPoint x="267" y="820" as="targetPoint" />
            <mxPoint as="offset" />
          </mxGeometry>
        </mxCell>
        <mxCell id="InxY2Z15q-nkg9lSu2-P-182" value="checkRoomStatus()" style="html=1;verticalAlign=bottom;endArrow=block;curved=0;rounded=0;" edge="1" parent="1">
          <mxGeometry width="80" relative="1" as="geometry">
            <mxPoint x="280" y="780" as="sourcePoint" />
            <mxPoint x="1199.5" y="780" as="targetPoint" />
          </mxGeometry>
        </mxCell>
        <mxCell id="InxY2Z15q-nkg9lSu2-P-183" value="return true" style="html=1;verticalAlign=bottom;endArrow=open;dashed=1;endSize=8;curved=0;rounded=0;" edge="1" parent="1">
          <mxGeometry relative="1" as="geometry">
            <mxPoint x="1199.5" y="800" as="sourcePoint" />
            <mxPoint x="280" y="800" as="targetPoint" />
          </mxGeometry>
        </mxCell>
        <mxCell id="InxY2Z15q-nkg9lSu2-P-184" value="Room:&lt;div&gt;SecondLayer&lt;/div&gt;" style="shape=umlLifeline;perimeter=lifelinePerimeter;whiteSpace=wrap;html=1;container=1;dropTarget=0;collapsible=0;recursiveResize=0;outlineConnect=0;portConstraint=eastwest;newEdgeStyle={&quot;curved&quot;:0,&quot;rounded&quot;:0};" vertex="1" parent="1">
          <mxGeometry x="1150" y="650" width="100" height="680" as="geometry" />
        </mxCell>
        <mxCell id="InxY2Z15q-nkg9lSu2-P-185" value="" style="html=1;points=[[0,0,0,0,5],[0,1,0,0,-5],[1,0,0,0,5],[1,1,0,0,-5]];perimeter=orthogonalPerimeter;outlineConnect=0;targetShapes=umlLifeline;portConstraint=eastwest;newEdgeStyle={&quot;curved&quot;:0,&quot;rounded&quot;:0};" vertex="1" parent="InxY2Z15q-nkg9lSu2-P-184">
          <mxGeometry x="45" y="60" width="10" height="620" as="geometry" />
        </mxCell>
        <mxCell id="InxY2Z15q-nkg9lSu2-P-186" value="setPosition()" style="html=1;verticalAlign=bottom;endArrow=block;curved=0;rounded=0;" edge="1" parent="1">
          <mxGeometry width="80" relative="1" as="geometry">
            <mxPoint x="280" y="810" as="sourcePoint" />
            <mxPoint x="499.5" y="810" as="targetPoint" />
          </mxGeometry>
        </mxCell>
        <mxCell id="InxY2Z15q-nkg9lSu2-P-187" value="Input Command &quot;E&quot;" style="html=1;verticalAlign=bottom;startArrow=oval;startFill=1;endArrow=block;startSize=8;curved=0;rounded=0;" edge="1" parent="1">
          <mxGeometry x="0.0044" width="60" relative="1" as="geometry">
            <mxPoint x="25.500000000000227" y="801" as="sourcePoint" />
            <mxPoint x="130.75" y="801" as="targetPoint" />
            <mxPoint as="offset" />
          </mxGeometry>
        </mxCell>
        <mxCell id="InxY2Z15q-nkg9lSu2-P-188" value="&lt;font style=&quot;font-size: 12px;&quot;&gt;processCommand(&quot;E&quot;)&lt;/font&gt;" style="html=1;verticalAlign=bottom;startArrow=oval;startFill=1;endArrow=block;startSize=8;curved=0;rounded=0;" edge="1" parent="1">
          <mxGeometry x="-0.0045" width="60" relative="1" as="geometry">
            <mxPoint x="129" y="831" as="sourcePoint" />
            <mxPoint x="259" y="831" as="targetPoint" />
            <mxPoint as="offset" />
          </mxGeometry>
        </mxCell>
        <mxCell id="InxY2Z15q-nkg9lSu2-P-189" value="move(&quot;north&quot;)" style="html=1;align=left;spacingLeft=2;endArrow=block;rounded=0;edgeStyle=orthogonalEdgeStyle;curved=0;rounded=0;" edge="1" parent="1">
          <mxGeometry relative="1" as="geometry">
            <mxPoint x="266.5" y="841" as="sourcePoint" />
            <Array as="points">
              <mxPoint x="276.5" y="841" />
              <mxPoint x="276.5" y="901" />
            </Array>
            <mxPoint x="266.5" y="901" as="targetPoint" />
            <mxPoint as="offset" />
          </mxGeometry>
        </mxCell>
        <mxCell id="InxY2Z15q-nkg9lSu2-P-190" value="checkRoomStatus()" style="html=1;verticalAlign=bottom;endArrow=block;curved=0;rounded=0;" edge="1" parent="1">
          <mxGeometry width="80" relative="1" as="geometry">
            <mxPoint x="279.5" y="861" as="sourcePoint" />
            <mxPoint x="969.5" y="861" as="targetPoint" />
          </mxGeometry>
        </mxCell>
        <mxCell id="InxY2Z15q-nkg9lSu2-P-191" value="return true" style="html=1;verticalAlign=bottom;endArrow=open;dashed=1;endSize=8;curved=0;rounded=0;" edge="1" parent="1">
          <mxGeometry relative="1" as="geometry">
            <mxPoint x="969.5" y="881" as="sourcePoint" />
            <mxPoint x="279.5" y="881" as="targetPoint" />
          </mxGeometry>
        </mxCell>
        <mxCell id="InxY2Z15q-nkg9lSu2-P-192" value="setPosition()" style="html=1;verticalAlign=bottom;endArrow=block;curved=0;rounded=0;" edge="1" parent="1">
          <mxGeometry width="80" relative="1" as="geometry">
            <mxPoint x="279.5" y="891" as="sourcePoint" />
            <mxPoint x="499.5" y="891" as="targetPoint" />
          </mxGeometry>
        </mxCell>
        <mxCell id="InxY2Z15q-nkg9lSu2-P-193" value="Puzzle:&lt;br&gt;Broken Staircase" style="shape=umlLifeline;perimeter=lifelinePerimeter;whiteSpace=wrap;html=1;container=1;dropTarget=0;collapsible=0;recursiveResize=0;outlineConnect=0;portConstraint=eastwest;newEdgeStyle={&quot;curved&quot;:0,&quot;rounded&quot;:0};" vertex="1" parent="1">
          <mxGeometry x="1270" y="650" width="100" height="680" as="geometry" />
        </mxCell>
        <mxCell id="InxY2Z15q-nkg9lSu2-P-194" value="" style="html=1;points=[[0,0,0,0,5],[0,1,0,0,-5],[1,0,0,0,5],[1,1,0,0,-5]];perimeter=orthogonalPerimeter;outlineConnect=0;targetShapes=umlLifeline;portConstraint=eastwest;newEdgeStyle={&quot;curved&quot;:0,&quot;rounded&quot;:0};" vertex="1" parent="InxY2Z15q-nkg9lSu2-P-193">
          <mxGeometry x="45" y="60" width="10" height="620" as="geometry" />
        </mxCell>
        <mxCell id="InxY2Z15q-nkg9lSu2-P-195" value="Item:&lt;div&gt;Repair Tool&lt;/div&gt;" style="shape=umlLifeline;perimeter=lifelinePerimeter;whiteSpace=wrap;html=1;container=1;dropTarget=0;collapsible=0;recursiveResize=0;outlineConnect=0;portConstraint=eastwest;newEdgeStyle={&quot;curved&quot;:0,&quot;rounded&quot;:0};" vertex="1" parent="1">
          <mxGeometry x="1380" y="650" width="100" height="680" as="geometry" />
        </mxCell>
        <mxCell id="InxY2Z15q-nkg9lSu2-P-196" value="" style="html=1;points=[[0,0,0,0,5],[0,1,0,0,-5],[1,0,0,0,5],[1,1,0,0,-5]];perimeter=orthogonalPerimeter;outlineConnect=0;targetShapes=umlLifeline;portConstraint=eastwest;newEdgeStyle={&quot;curved&quot;:0,&quot;rounded&quot;:0};" vertex="1" parent="InxY2Z15q-nkg9lSu2-P-195">
          <mxGeometry x="45" y="60" width="10" height="620" as="geometry" />
        </mxCell>
        <mxCell id="InxY2Z15q-nkg9lSu2-P-200" value="Input Command &quot;U&quot;" style="html=1;verticalAlign=bottom;startArrow=oval;startFill=1;endArrow=block;startSize=8;curved=0;rounded=0;" edge="1" parent="1">
          <mxGeometry x="0.006" width="60" relative="1" as="geometry">
            <mxPoint x="30.000000000000227" y="890" as="sourcePoint" />
            <mxPoint x="135.25" y="890" as="targetPoint" />
            <mxPoint as="offset" />
          </mxGeometry>
        </mxCell>
        <mxCell id="InxY2Z15q-nkg9lSu2-P-201" value="&lt;font style=&quot;font-size: 12px;&quot;&gt;processCommand(&quot;U&quot;)&lt;/font&gt;" style="html=1;verticalAlign=bottom;startArrow=oval;startFill=1;endArrow=block;startSize=8;curved=0;rounded=0;" edge="1" parent="1">
          <mxGeometry x="-0.0045" width="60" relative="1" as="geometry">
            <mxPoint x="133.5" y="920" as="sourcePoint" />
            <mxPoint x="263.5" y="920" as="targetPoint" />
            <mxPoint as="offset" />
          </mxGeometry>
        </mxCell>
        <mxCell id="InxY2Z15q-nkg9lSu2-P-202" value="useItem()" style="html=1;align=left;spacingLeft=2;endArrow=block;rounded=0;edgeStyle=orthogonalEdgeStyle;curved=0;rounded=0;" edge="1" parent="1">
          <mxGeometry relative="1" as="geometry">
            <mxPoint x="260" y="920" as="sourcePoint" />
            <Array as="points">
              <mxPoint x="261" y="920" />
              <mxPoint x="271" y="920" />
              <mxPoint x="271" y="960" />
            </Array>
            <mxPoint x="261" y="960" as="targetPoint" />
            <mxPoint as="offset" />
          </mxGeometry>
        </mxCell>
        <mxCell id="InxY2Z15q-nkg9lSu2-P-203" value="use()" style="html=1;verticalAlign=bottom;endArrow=block;curved=0;rounded=0;" edge="1" parent="1">
          <mxGeometry width="80" relative="1" as="geometry">
            <mxPoint x="284.75" y="950" as="sourcePoint" />
            <mxPoint x="1429.5" y="950" as="targetPoint" />
          </mxGeometry>
        </mxCell>
        <mxCell id="InxY2Z15q-nkg9lSu2-P-204" value="solve()" style="html=1;verticalAlign=bottom;endArrow=block;curved=0;rounded=0;" edge="1" parent="1">
          <mxGeometry width="80" relative="1" as="geometry">
            <mxPoint x="1429.5" y="980" as="sourcePoint" />
            <mxPoint x="1319.1666666666665" y="980" as="targetPoint" />
            <Array as="points">
              <mxPoint x="1380" y="980" />
            </Array>
          </mxGeometry>
        </mxCell>
        <mxCell id="InxY2Z15q-nkg9lSu2-P-206" value="Input Command &quot;S&quot;" style="html=1;verticalAlign=bottom;startArrow=oval;startFill=1;endArrow=block;startSize=8;curved=0;rounded=0;" edge="1" parent="1">
          <mxGeometry x="0.0044" width="60" relative="1" as="geometry">
            <mxPoint x="27.750000000000227" y="940" as="sourcePoint" />
            <mxPoint x="133" y="940" as="targetPoint" />
            <mxPoint as="offset" />
          </mxGeometry>
        </mxCell>
        <mxCell id="InxY2Z15q-nkg9lSu2-P-207" value="&lt;font style=&quot;font-size: 12px;&quot;&gt;processCommand(&quot;S&quot;)&lt;/font&gt;" style="html=1;verticalAlign=bottom;startArrow=oval;startFill=1;endArrow=block;startSize=8;curved=0;rounded=0;" edge="1" parent="1">
          <mxGeometry x="-0.0045" width="60" relative="1" as="geometry">
            <mxPoint x="131.25" y="970" as="sourcePoint" />
            <mxPoint x="261.25" y="970" as="targetPoint" />
            <mxPoint as="offset" />
          </mxGeometry>
        </mxCell>
        <mxCell id="InxY2Z15q-nkg9lSu2-P-208" value="move(&quot;south&quot;)" style="html=1;align=left;spacingLeft=2;endArrow=block;rounded=0;edgeStyle=orthogonalEdgeStyle;curved=0;rounded=0;" edge="1" parent="1">
          <mxGeometry relative="1" as="geometry">
            <mxPoint x="268.75" y="980" as="sourcePoint" />
            <Array as="points">
              <mxPoint x="278.75" y="980" />
              <mxPoint x="278.75" y="1040" />
            </Array>
            <mxPoint x="268.75" y="1040" as="targetPoint" />
            <mxPoint as="offset" />
          </mxGeometry>
        </mxCell>
        <mxCell id="InxY2Z15q-nkg9lSu2-P-209" value="checkRoomStatus()" style="html=1;verticalAlign=bottom;endArrow=block;curved=0;rounded=0;" edge="1" parent="1" target="InxY2Z15q-nkg9lSu2-P-148">
          <mxGeometry width="80" relative="1" as="geometry">
            <mxPoint x="281.75" y="1000" as="sourcePoint" />
            <mxPoint x="972.25" y="1000" as="targetPoint" />
          </mxGeometry>
        </mxCell>
        <mxCell id="InxY2Z15q-nkg9lSu2-P-210" value="return true" style="html=1;verticalAlign=bottom;endArrow=open;dashed=1;endSize=8;curved=0;rounded=0;" edge="1" parent="1" source="InxY2Z15q-nkg9lSu2-P-148">
          <mxGeometry relative="1" as="geometry">
            <mxPoint x="972.25" y="1020" as="sourcePoint" />
            <mxPoint x="281.75" y="1020" as="targetPoint" />
          </mxGeometry>
        </mxCell>
        <mxCell id="InxY2Z15q-nkg9lSu2-P-211" value="setPosition()" style="html=1;verticalAlign=bottom;endArrow=block;curved=0;rounded=0;" edge="1" parent="1">
          <mxGeometry width="80" relative="1" as="geometry">
            <mxPoint x="281.75" y="1030" as="sourcePoint" />
            <mxPoint x="501.75" y="1030" as="targetPoint" />
          </mxGeometry>
        </mxCell>
        <mxCell id="InxY2Z15q-nkg9lSu2-P-214" value="Item:&lt;div&gt;Necklace&lt;/div&gt;" style="shape=umlLifeline;perimeter=lifelinePerimeter;whiteSpace=wrap;html=1;container=1;dropTarget=0;collapsible=0;recursiveResize=0;outlineConnect=0;portConstraint=eastwest;newEdgeStyle={&quot;curved&quot;:0,&quot;rounded&quot;:0};" vertex="1" parent="1">
          <mxGeometry x="1490" y="650" width="100" height="680" as="geometry" />
        </mxCell>
        <mxCell id="InxY2Z15q-nkg9lSu2-P-215" value="" style="html=1;points=[[0,0,0,0,5],[0,1,0,0,-5],[1,0,0,0,5],[1,1,0,0,-5]];perimeter=orthogonalPerimeter;outlineConnect=0;targetShapes=umlLifeline;portConstraint=eastwest;newEdgeStyle={&quot;curved&quot;:0,&quot;rounded&quot;:0};" vertex="1" parent="InxY2Z15q-nkg9lSu2-P-214">
          <mxGeometry x="45" y="60" width="10" height="620" as="geometry" />
        </mxCell>
        <mxCell id="InxY2Z15q-nkg9lSu2-P-216" value="Input Command &quot;U&quot;" style="html=1;verticalAlign=bottom;startArrow=oval;startFill=1;endArrow=block;startSize=8;curved=0;rounded=0;" edge="1" parent="1">
          <mxGeometry x="-0.0024" width="60" relative="1" as="geometry">
            <mxPoint x="25.250000000000227" y="1040" as="sourcePoint" />
            <mxPoint x="130.5" y="1040" as="targetPoint" />
            <mxPoint as="offset" />
          </mxGeometry>
        </mxCell>
        <mxCell id="InxY2Z15q-nkg9lSu2-P-217" value="&lt;font style=&quot;font-size: 12px;&quot;&gt;processCommand(&quot;U&quot;)&lt;/font&gt;" style="html=1;verticalAlign=bottom;startArrow=oval;startFill=1;endArrow=block;startSize=8;curved=0;rounded=0;" edge="1" parent="1">
          <mxGeometry x="-0.0045" width="60" relative="1" as="geometry">
            <mxPoint x="128.75" y="1070" as="sourcePoint" />
            <mxPoint x="258.75" y="1070" as="targetPoint" />
            <mxPoint as="offset" />
          </mxGeometry>
        </mxCell>
        <mxCell id="InxY2Z15q-nkg9lSu2-P-218" value="useItem()" style="html=1;align=left;spacingLeft=2;endArrow=block;rounded=0;edgeStyle=orthogonalEdgeStyle;curved=0;rounded=0;" edge="1" parent="1">
          <mxGeometry relative="1" as="geometry">
            <mxPoint x="266.25" y="1080" as="sourcePoint" />
            <Array as="points">
              <mxPoint x="276.25" y="1080" />
              <mxPoint x="276.25" y="1140" />
            </Array>
            <mxPoint x="266.25" y="1140" as="targetPoint" />
            <mxPoint as="offset" />
          </mxGeometry>
        </mxCell>
        <mxCell id="InxY2Z15q-nkg9lSu2-P-219" value="use()" style="html=1;verticalAlign=bottom;endArrow=block;curved=0;rounded=0;" edge="1" parent="1" target="InxY2Z15q-nkg9lSu2-P-214">
          <mxGeometry width="80" relative="1" as="geometry">
            <mxPoint x="280" y="1100" as="sourcePoint" />
            <mxPoint x="1424.75" y="1100" as="targetPoint" />
          </mxGeometry>
        </mxCell>
        <mxCell id="InxY2Z15q-nkg9lSu2-P-220" value="solve()" style="html=1;verticalAlign=bottom;endArrow=block;curved=0;rounded=0;" edge="1" parent="1" source="InxY2Z15q-nkg9lSu2-P-214" target="InxY2Z15q-nkg9lSu2-P-174">
          <mxGeometry width="80" relative="1" as="geometry">
            <mxPoint x="1424.75" y="1130" as="sourcePoint" />
            <mxPoint x="1314.4166666666665" y="1130" as="targetPoint" />
            <Array as="points">
              <mxPoint x="1375.25" y="1130" />
            </Array>
          </mxGeometry>
        </mxCell>
        <mxCell id="InxY2Z15q-nkg9lSu2-P-221" value="Input Command &quot;E&quot;" style="html=1;verticalAlign=bottom;startArrow=oval;startFill=1;endArrow=block;startSize=8;curved=0;rounded=0;" edge="1" parent="1">
          <mxGeometry x="0.0095" width="60" relative="1" as="geometry">
            <mxPoint x="30" y="1140" as="sourcePoint" />
            <mxPoint x="136.5" y="1140" as="targetPoint" />
            <mxPoint as="offset" />
          </mxGeometry>
        </mxCell>
        <mxCell id="InxY2Z15q-nkg9lSu2-P-222" value="&lt;font style=&quot;font-size: 12px;&quot;&gt;processCommand(&quot;E&quot;)&lt;/font&gt;" style="html=1;verticalAlign=bottom;startArrow=oval;startFill=1;endArrow=block;startSize=8;curved=0;rounded=0;" edge="1" parent="1">
          <mxGeometry width="60" relative="1" as="geometry">
            <mxPoint x="136" y="1150" as="sourcePoint" />
            <mxPoint x="266" y="1150" as="targetPoint" />
            <mxPoint as="offset" />
          </mxGeometry>
        </mxCell>
        <mxCell id="InxY2Z15q-nkg9lSu2-P-223" value="move(&quot;south&quot;)" style="html=1;align=left;spacingLeft=2;endArrow=block;rounded=0;edgeStyle=orthogonalEdgeStyle;curved=0;rounded=0;" edge="1" parent="1">
          <mxGeometry relative="1" as="geometry">
            <mxPoint x="273" y="1150" as="sourcePoint" />
            <Array as="points">
              <mxPoint x="283" y="1150" />
              <mxPoint x="283" y="1210" />
            </Array>
            <mxPoint x="273" y="1210" as="targetPoint" />
            <mxPoint as="offset" />
          </mxGeometry>
        </mxCell>
        <mxCell id="InxY2Z15q-nkg9lSu2-P-224" value="checkRoomStatus()" style="html=1;verticalAlign=bottom;endArrow=block;curved=0;rounded=0;" edge="1" parent="1">
          <mxGeometry width="80" relative="1" as="geometry">
            <mxPoint x="286" y="1170" as="sourcePoint" />
            <mxPoint x="851" y="1170" as="targetPoint" />
          </mxGeometry>
        </mxCell>
        <mxCell id="InxY2Z15q-nkg9lSu2-P-225" value="return true" style="html=1;verticalAlign=bottom;endArrow=open;dashed=1;endSize=8;curved=0;rounded=0;" edge="1" parent="1">
          <mxGeometry x="-0.0008" relative="1" as="geometry">
            <mxPoint x="850" y="1190" as="sourcePoint" />
            <mxPoint x="280" y="1190" as="targetPoint" />
            <mxPoint as="offset" />
          </mxGeometry>
        </mxCell>
        <mxCell id="InxY2Z15q-nkg9lSu2-P-226" value="isSolved()" style="html=1;verticalAlign=bottom;startArrow=oval;startFill=1;endArrow=block;startSize=8;curved=0;rounded=0;" edge="1" parent="1">
          <mxGeometry width="60" relative="1" as="geometry">
            <mxPoint x="627.5" y="1000" as="sourcePoint" />
            <mxPoint x="1312.5" y="1000" as="targetPoint" />
            <Array as="points">
              <mxPoint x="667.5" y="1000" />
              <mxPoint x="687.5" y="1000" />
            </Array>
          </mxGeometry>
        </mxCell>
        <mxCell id="InxY2Z15q-nkg9lSu2-P-227" value="return true" style="html=1;verticalAlign=bottom;endArrow=open;dashed=1;endSize=8;curved=0;rounded=0;" edge="1" parent="1">
          <mxGeometry relative="1" as="geometry">
            <mxPoint x="1315.3400000000001" y="1020" as="sourcePoint" />
            <mxPoint x="624.66" y="1020" as="targetPoint" />
          </mxGeometry>
        </mxCell>
        <mxCell id="InxY2Z15q-nkg9lSu2-P-228" value="isSolved()" style="html=1;verticalAlign=bottom;startArrow=oval;startFill=1;endArrow=block;startSize=8;curved=0;rounded=0;" edge="1" parent="1" target="InxY2Z15q-nkg9lSu2-P-174">
          <mxGeometry width="60" relative="1" as="geometry">
            <mxPoint x="850" y="1170" as="sourcePoint" />
            <mxPoint x="1535" y="1170" as="targetPoint" />
            <Array as="points">
              <mxPoint x="890" y="1170" />
              <mxPoint x="910" y="1170" />
            </Array>
          </mxGeometry>
        </mxCell>
        <mxCell id="InxY2Z15q-nkg9lSu2-P-229" value="return true" style="html=1;verticalAlign=bottom;endArrow=open;dashed=1;endSize=8;curved=0;rounded=0;" edge="1" parent="1">
          <mxGeometry relative="1" as="geometry">
            <mxPoint x="1071.4999999999995" y="1200" as="sourcePoint" />
            <mxPoint x="847" y="1200" as="targetPoint" />
          </mxGeometry>
        </mxCell>
        <mxCell id="InxY2Z15q-nkg9lSu2-P-230" value="setPosition()" style="html=1;verticalAlign=bottom;endArrow=block;curved=0;rounded=0;" edge="1" parent="1">
          <mxGeometry width="80" relative="1" as="geometry">
            <mxPoint x="280" y="1210" as="sourcePoint" />
            <mxPoint x="500" y="1210" as="targetPoint" />
          </mxGeometry>
        </mxCell>
        <mxCell id="InxY2Z15q-nkg9lSu2-P-231" value="Room:&lt;div&gt;SecondLayer&lt;/div&gt;" style="shape=umlLifeline;perimeter=lifelinePerimeter;whiteSpace=wrap;html=1;container=1;dropTarget=0;collapsible=0;recursiveResize=0;outlineConnect=0;portConstraint=eastwest;newEdgeStyle={&quot;curved&quot;:0,&quot;rounded&quot;:0};" vertex="1" parent="1">
          <mxGeometry x="1160" y="60" width="100" height="470" as="geometry" />
        </mxCell>
        <mxCell id="InxY2Z15q-nkg9lSu2-P-232" value="" style="html=1;points=[[0,0,0,0,5],[0,1,0,0,-5],[1,0,0,0,5],[1,1,0,0,-5]];perimeter=orthogonalPerimeter;outlineConnect=0;targetShapes=umlLifeline;portConstraint=eastwest;newEdgeStyle={&quot;curved&quot;:0,&quot;rounded&quot;:0};" vertex="1" parent="InxY2Z15q-nkg9lSu2-P-231">
          <mxGeometry x="45" y="60" width="10" height="370" as="geometry" />
        </mxCell>
        <mxCell id="InxY2Z15q-nkg9lSu2-P-233" value="initalize()" style="html=1;verticalAlign=bottom;startArrow=oval;endArrow=block;startSize=8;curved=0;rounded=0;" edge="1" parent="1">
          <mxGeometry relative="1" as="geometry">
            <mxPoint x="380" y="195" as="sourcePoint" />
            <mxPoint x="1209.5" y="195" as="targetPoint" />
          </mxGeometry>
        </mxCell>
        <mxCell id="InxY2Z15q-nkg9lSu2-P-234" value="Item:&lt;div&gt;Coin&lt;/div&gt;" style="shape=umlLifeline;perimeter=lifelinePerimeter;whiteSpace=wrap;html=1;container=1;dropTarget=0;collapsible=0;recursiveResize=0;outlineConnect=0;portConstraint=eastwest;newEdgeStyle={&quot;curved&quot;:0,&quot;rounded&quot;:0};" vertex="1" parent="1">
          <mxGeometry x="1610" y="650" width="100" height="680" as="geometry" />
        </mxCell>
        <mxCell id="InxY2Z15q-nkg9lSu2-P-235" value="" style="html=1;points=[[0,0,0,0,5],[0,1,0,0,-5],[1,0,0,0,5],[1,1,0,0,-5]];perimeter=orthogonalPerimeter;outlineConnect=0;targetShapes=umlLifeline;portConstraint=eastwest;newEdgeStyle={&quot;curved&quot;:0,&quot;rounded&quot;:0};" vertex="1" parent="InxY2Z15q-nkg9lSu2-P-234">
          <mxGeometry x="45" y="60" width="10" height="620" as="geometry" />
        </mxCell>
        <mxCell id="InxY2Z15q-nkg9lSu2-P-236" value="Input Command &quot;T&quot;" style="html=1;verticalAlign=bottom;startArrow=oval;startFill=1;endArrow=block;startSize=8;curved=0;rounded=0;" edge="1" parent="1">
          <mxGeometry x="-0.0024" width="60" relative="1" as="geometry">
            <mxPoint x="25.000000000000227" y="1240" as="sourcePoint" />
            <mxPoint x="130.25" y="1240" as="targetPoint" />
            <mxPoint as="offset" />
          </mxGeometry>
        </mxCell>
        <mxCell id="InxY2Z15q-nkg9lSu2-P-237" value="&lt;font style=&quot;font-size: 12px;&quot;&gt;processCommand(&quot;T&quot;)&lt;/font&gt;" style="html=1;verticalAlign=bottom;startArrow=oval;startFill=1;endArrow=block;startSize=8;curved=0;rounded=0;" edge="1" parent="1">
          <mxGeometry x="-0.0045" width="60" relative="1" as="geometry">
            <mxPoint x="128.5" y="1270" as="sourcePoint" />
            <mxPoint x="258.5" y="1270" as="targetPoint" />
            <mxPoint as="offset" />
          </mxGeometry>
        </mxCell>
        <mxCell id="InxY2Z15q-nkg9lSu2-P-238" value="takeItem()" style="html=1;align=left;spacingLeft=2;endArrow=block;rounded=0;edgeStyle=orthogonalEdgeStyle;curved=0;rounded=0;" edge="1" parent="1">
          <mxGeometry relative="1" as="geometry">
            <mxPoint x="266" y="1265" as="sourcePoint" />
            <Array as="points">
              <mxPoint x="276" y="1265" />
              <mxPoint x="276" y="1325" />
            </Array>
            <mxPoint x="266" y="1325" as="targetPoint" />
            <mxPoint as="offset" />
          </mxGeometry>
        </mxCell>
        <mxCell id="InxY2Z15q-nkg9lSu2-P-239" value="addItem(coin)" style="html=1;verticalAlign=bottom;endArrow=block;curved=0;rounded=0;" edge="1" parent="1">
          <mxGeometry width="80" relative="1" as="geometry">
            <mxPoint x="279.75" y="1280" as="sourcePoint" />
            <mxPoint x="499.5" y="1280" as="targetPoint" />
          </mxGeometry>
        </mxCell>
      </root>
    </mxGraphModel>
  </diagram>
</mxfile>
